<?xml version="1.0" encoding="utf-8"?>
<!-- Generator: Adobe Illustrator 15.0.0, SVG Export Plug-In  -->
<!DOCTYPE svg PUBLIC "-//W3C//DTD SVG 1.1//EN" "http://www.w3.org/Graphics/SVG/1.1/DTD/svg11.dtd" [
	<!ENTITY ns_flows "http://ns.adobe.com/Flows/1.0/">
]>
<svg version="1.1"
	 xmlns="http://www.w3.org/2000/svg" xmlns:xlink="http://www.w3.org/1999/xlink" xmlns:a="http://ns.adobe.com/AdobeSVGViewerExtensions/3.0/"
	 x="0px" y="0px" width="114px" height="15px" viewBox="0 0 114 15" overflow="visible" enable-background="new 0 0 114 15"
	 xml:space="preserve">
<defs>
</defs>
<path d="M0,7.255c0-1.1,0.185-2.098,0.555-2.992C0.923,3.37,1.439,2.608,2.099,1.979C2.76,1.352,3.545,0.87,4.45,0.533
	C5.358,0.195,6.35,0.029,7.424,0.029c1.077,0,2.068,0.166,2.974,0.504c0.908,0.337,1.691,0.818,2.351,1.446
	c0.662,0.629,1.179,1.391,1.546,2.283c0.369,0.895,0.555,1.893,0.555,2.992c0,1.103-0.186,2.101-0.555,2.995
	c-0.367,0.893-0.884,1.654-1.546,2.283c-0.659,0.628-1.442,1.109-2.351,1.446c-0.905,0.338-1.896,0.508-2.974,0.508
	c-1.074,0-2.065-0.17-2.974-0.508c-0.905-0.337-1.69-0.818-2.352-1.446c-0.659-0.629-1.176-1.391-1.544-2.283
	C0.185,9.355,0,8.357,0,7.255z M3.149,7.255c0,0.648,0.1,1.24,0.3,1.782c0.203,0.535,0.49,1.001,0.866,1.397
	c0.376,0.395,0.825,0.703,1.35,0.922c0.526,0.222,1.111,0.333,1.759,0.333c0.649,0,1.235-0.111,1.76-0.333
	c0.525-0.219,0.975-0.527,1.351-0.922c0.374-0.396,0.663-0.862,0.863-1.397C11.6,8.495,11.7,7.903,11.7,7.255
	c0-0.634-0.101-1.223-0.303-1.766c-0.2-0.547-0.489-1.015-0.863-1.411c-0.376-0.395-0.825-0.7-1.351-0.921
	c-0.524-0.222-1.11-0.33-1.76-0.33c-0.647,0-1.232,0.108-1.759,0.33c-0.524,0.221-0.974,0.526-1.35,0.921
	C3.939,4.475,3.652,4.942,3.449,5.489C3.249,6.032,3.149,6.621,3.149,7.255z"/>
<path d="M14.653,0.375h3.459l3.401,9.02h0.04l3.459-9.02h3.245l-5.676,13.761h-2.429L14.653,0.375z"/>
<path d="M30.084,0.375h9.348v2.8h-6.315v2.566h5.966v2.798h-5.966v2.8h6.667v2.797h-9.699V0.375z"/>
<path d="M42.482,0.375h5.325c0.7,0,1.363,0.069,1.992,0.207c0.63,0.136,1.179,0.362,1.651,0.679c0.474,0.317,0.85,0.744,1.128,1.283
	c0.278,0.538,0.419,1.206,0.419,2.01c0,0.974-0.253,1.801-0.759,2.479c-0.505,0.681-1.244,1.109-2.217,1.292l3.5,5.811h-3.636
	l-2.875-5.502h-1.496v5.502h-3.033V0.375z M45.516,6.071h1.787c0.271,0,0.561-0.012,0.865-0.029c0.303-0.02,0.58-0.079,0.826-0.175
	c0.244-0.097,0.449-0.249,0.611-0.458c0.162-0.207,0.243-0.498,0.243-0.873c0-0.351-0.071-0.629-0.212-0.836
	c-0.145-0.207-0.326-0.365-0.545-0.478C48.87,3.114,48.618,3.037,48.332,3c-0.283-0.039-0.563-0.057-0.835-0.057h-1.981V6.071z"/>
<path d="M55.367,0.37h9.238v2.8H58.4v2.801h5.738v2.798H58.4v5.367h-3.033V0.37z"/>
<path d="M70.184,14.979l-5.583-3.713l1.551-2.329l3.056,2.031L76.504,0l2.526,1.679L70.184,14.979z"/>
<path d="M79.205,7.252c0-1.099,0.186-2.098,0.553-2.994c0.369-0.893,0.887-1.656,1.548-2.283c0.66-0.631,1.444-1.112,2.35-1.449
	c0.909-0.338,1.9-0.505,2.978-0.505c1.075,0,2.07,0.167,2.976,0.505c0.906,0.337,1.691,0.818,2.352,1.449
	c0.661,0.627,1.179,1.391,1.546,2.283c0.369,0.896,0.555,1.896,0.555,2.994c0,1.105-0.186,2.103-0.555,2.995
	c-0.367,0.896-0.885,1.657-1.546,2.286c-0.66,0.628-1.445,1.111-2.352,1.446c-0.905,0.338-1.9,0.508-2.976,0.508
	c-1.077,0-2.068-0.17-2.978-0.508c-0.905-0.335-1.689-0.818-2.35-1.446c-0.661-0.629-1.179-1.391-1.548-2.286
	C79.391,9.354,79.205,8.357,79.205,7.252z M82.355,7.252c0,0.649,0.099,1.243,0.299,1.778c0.204,0.539,0.49,1.008,0.865,1.402
	c0.375,0.396,0.826,0.705,1.354,0.924c0.525,0.222,1.111,0.333,1.76,0.333s1.235-0.111,1.761-0.333
	c0.522-0.219,0.976-0.527,1.351-0.924c0.377-0.395,0.663-0.863,0.865-1.402c0.199-0.535,0.3-1.129,0.3-1.778
	c0-0.636-0.101-1.225-0.3-1.769c-0.202-0.543-0.488-1.014-0.865-1.408c-0.375-0.399-0.828-0.703-1.351-0.925
	c-0.525-0.22-1.112-0.332-1.761-0.332s-1.234,0.112-1.76,0.332c-0.527,0.222-0.979,0.525-1.354,0.925
	c-0.375,0.395-0.661,0.865-0.865,1.408C82.454,6.027,82.355,6.616,82.355,7.252z"/>
<path d="M94.061,0.37h3.308l2.196,8.828h0.039l2.878-8.828h2.819l2.857,9.06h0.042l2.312-9.06h3.074l-4.027,13.766h-2.702
	l-3.034-9.526h-0.038l-3.033,9.526h-2.608L94.061,0.37z"/>
</svg>

<!-- Embeded svg sprite reference -->
<svg display="none" xmlns="http://www.w3.org/2000/svg">
 <symbol id="icon-423cefd7" viewBox="0 0 114 15" overflow="visible" >
	 <path d="M0 7.255c0-1.1.185-2.098.555-2.992a6.572 6.572 0 0 1 1.544-2.284A6.843 6.843 0 0 1 4.45.533C5.358.195 6.35.029 7.424.029c1.077 0 2.068.166 2.974.504a6.79 6.79 0 0 1 2.351 1.446 6.541 6.541 0 0 1 1.546 2.283c.369.895.555 1.893.555 2.992 0 1.103-.186 2.101-.555 2.995a6.532 6.532 0 0 1-1.546 2.283 6.772 6.772 0 0 1-2.351 1.446c-.905.338-1.896.508-2.974.508-1.074 0-2.065-.17-2.974-.508a6.842 6.842 0 0 1-2.352-1.446 6.59 6.59 0 0 1-1.544-2.283C.185 9.355 0 8.357 0 7.255zm3.149 0c0 .648.1 1.24.3 1.782.203.535.49 1.001.866 1.397.376.395.825.703 1.35.922a4.477 4.477 0 0 0 1.759.333c.649 0 1.235-.111 1.76-.333a3.93 3.93 0 0 0 1.351-.922c.374-.396.663-.862.863-1.397a5.057 5.057 0 0 0 .302-1.782c0-.634-.101-1.223-.303-1.766a4.055 4.055 0 0 0-.863-1.411 3.946 3.946 0 0 0-1.351-.921c-.524-.222-1.11-.33-1.76-.33-.647 0-1.232.108-1.759.33a3.961 3.961 0 0 0-1.35.921 4.098 4.098 0 0 0-.865 1.411c-.2.543-.3 1.132-.3 1.766zM14.653.375h3.459l3.401 9.02h.04l3.459-9.02h3.245l-5.676 13.761h-2.429L14.653.375zM30.084.375h9.348v2.8h-6.315v2.566h5.966v2.798h-5.966v2.8h6.667v2.797h-9.699V.375zM42.482.375h5.325c.7 0 1.363.069 1.992.207.63.136 1.179.362 1.651.679.474.317.85.744 1.128 1.283.278.538.419 1.206.419 2.01 0 .974-.253 1.801-.759 2.479-.505.681-1.244 1.109-2.217 1.292l3.5 5.811h-3.636L47.01 8.634h-1.496v5.502h-3.033V.375zm3.034 5.696h1.787c.271 0 .561-.012.865-.029.303-.02.58-.079.826-.175.244-.097.449-.249.611-.458.162-.207.243-.498.243-.873 0-.351-.071-.629-.212-.836a1.489 1.489 0 0 0-.545-.478A2.425 2.425 0 0 0 48.332 3a6.125 6.125 0 0 0-.835-.057h-1.981v3.128zM55.367.37h9.238v2.8H58.4v2.801h5.738v2.798H58.4v5.367h-3.033V.37zM70.184 14.979l-5.583-3.713 1.551-2.329 3.056 2.031L76.504 0l2.526 1.679-8.846 13.3zM79.205 7.252c0-1.099.186-2.098.553-2.994a6.559 6.559 0 0 1 1.548-2.283 6.767 6.767 0 0 1 2.35-1.449c.909-.338 1.9-.505 2.978-.505 1.075 0 2.07.167 2.976.505a6.785 6.785 0 0 1 2.352 1.449 6.536 6.536 0 0 1 1.546 2.283c.369.896.555 1.896.555 2.994 0 1.105-.186 2.103-.555 2.995a6.53 6.53 0 0 1-1.546 2.286 6.774 6.774 0 0 1-2.352 1.446c-.905.338-1.9.508-2.976.508-1.077 0-2.068-.17-2.978-.508a6.794 6.794 0 0 1-2.35-1.446 6.571 6.571 0 0 1-1.548-2.286c-.367-.893-.553-1.89-.553-2.995zm3.15 0c0 .649.099 1.243.299 1.778.204.539.49 1.008.865 1.402.375.396.826.705 1.354.924.525.222 1.111.333 1.76.333s1.235-.111 1.761-.333a3.927 3.927 0 0 0 1.351-.924 4.07 4.07 0 0 0 .865-1.402c.199-.535.3-1.129.3-1.778 0-.636-.101-1.225-.3-1.769a4.05 4.05 0 0 0-.865-1.408 3.934 3.934 0 0 0-1.351-.925c-.525-.22-1.112-.332-1.761-.332s-1.234.112-1.76.332a3.895 3.895 0 0 0-1.354.925 4.12 4.12 0 0 0-.865 1.408 5.085 5.085 0 0 0-.299 1.769zM94.061.37h3.308l2.196 8.828h.039L102.482.37h2.819l2.857 9.06h.042l2.312-9.06h3.074l-4.027 13.766h-2.702l-3.034-9.526h-.038l-3.033 9.526h-2.608L94.061.37z"/>
 </symbol>
</svg>

<!-- Later in the code, use it... -->
<svg class="icon-423cefd7">
 <use xlink:href="#icon-423cefd7" xmlns:xlink="http://www.w3.org/1999/xlink"></use>
</svg>
